<svg width="25" height="25" xmlns="http://www.w3.org/2000/svg" stroke="currentColor" fill="currentColor" stroke-width="0">

  <g>
    <g stroke="null">
      <path stroke="null" d="m-2.30926,-2.40396l29.87105,0l0,29.87105l-29.87105,0l0,-29.87105z" fill="none" />
      <path stroke="null" d="m12.62626,0.0853c-4.81671,0 -8.71239,3.89568 -8.71239,8.71239c0,2.16565 0.62231,4.19439 1.75492,6.02399c1.1824,1.91673 2.73818,3.55963 3.93302,5.47636c0.58497,0.93347 1.00815,1.80471 1.45621,2.81286c0.3236,0.68454 0.58497,1.86694 1.56823,1.86694s1.24463,-1.1824 1.55578,-1.86694c0.46051,-1.00815 0.87124,-1.87939 1.45621,-2.81286c1.19484,-1.90428 2.75063,-3.54719 3.93302,-5.47636c1.14506,-1.8296 1.76737,-3.85834 1.76737,-6.02399c0,-4.81671 -3.89568,-8.71239 -8.71239,-8.71239zm0,12.13511a3.11157,3.11157 0 0 1 0,-6.22313a3.11157,3.11157 0 0 1 0,6.22313z" />
    </g>
  </g>
</svg>