<svg width="25" height="25" xmlns="http://www.w3.org/2000/svg">
  <g>
    <g id="svg_1">
      <path id="svg_2" d="m403,293a1,1 0 0 1 1,1l0,12a1,1 0 0 1 -1,1l-6,0a1,1 0 0 1 -1,-1l0,-12a1,1 0 0 1 1,-1l6,0zm-6,-1a2,2 0 0 0 -2,2l0,12a2,2 0 0 0 2,2l6,0a2,2 0 0 0 2,-2l0,-12a2,2 0 0 0 -2,-2l-6,0z" />
      <path id="svg_3" d="m400,306a1,1 0 1 0 0,-2a1,1 0 0 0 0,2z" />
    </g>
    <g stroke="null">
      <path stroke="null" d="m17.17333,1.54508a1.56206,1.56206 0 0 1 1.56206,1.56206l0,18.74467a1.56206,1.56206 0 0 1 -1.56206,1.56206l-9.37233,0a1.56206,1.56206 0 0 1 -1.56206,-1.56206l0,-18.74467a1.56206,1.56206 0 0 1 1.56206,-1.56206l9.37233,0zm-9.37233,-1.56206a3.12411,3.12411 0 0 0 -3.12411,3.12411l0,18.74467a3.12411,3.12411 0 0 0 3.12411,3.12411l9.37233,0a3.12411,3.12411 0 0 0 3.12411,-3.12411l0,-18.74467a3.12411,3.12411 0 0 0 -3.12411,-3.12411l-9.37233,0z" />
      <path stroke="null" d="m12.48717,21.8518a1.56206,1.56206 0 1 0 0,-3.12411a1.56206,1.56206 0 0 0 0,3.12411z" />
    </g>
  </g>
</svg>