<svg width="25" height="25" xmlns="http://www.w3.org/2000/svg" stroke="currentColor" fill="currentColor" stroke-width="0">

  <g>
    <g stroke="null">
      <path stroke="null" d="m-2.21457,-2.21457l29.27132,0l0,29.27132l-29.27132,0l0,-29.27132z" fill="none" />
      <path stroke="null" d="m12.42109,0.22471c-6.7324,0 -12.19638,5.46398 -12.19638,12.19638s5.46398,12.19638 12.19638,12.19638l6.09819,0l0,-2.43928l-6.09819,0c-5.29323,0 -9.75711,-4.46388 -9.75711,-9.75711s4.46388,-9.75711 9.75711,-9.75711s9.75711,4.46388 9.75711,9.75711l0,1.74408c0,0.96351 -0.86594,1.91483 -1.82946,1.91483s-1.82946,-0.95132 -1.82946,-1.91483l0,-1.74408c0,-3.3662 -2.73199,-6.09819 -6.09819,-6.09819s-6.09819,2.73199 -6.09819,6.09819s2.73199,6.09819 6.09819,6.09819c1.6831,0 3.21984,-0.683 4.31752,-1.79287c0.79276,1.08548 2.15876,1.79287 3.61013,1.79287c2.40269,0 4.26873,-1.95142 4.26873,-4.35411l0,-1.74408c0,-6.7324 -5.46398,-12.19638 -12.19638,-12.19638zm0,15.8553c-2.0246,0 -3.65891,-1.63432 -3.65891,-3.65891s1.63432,-3.65891 3.65891,-3.65891s3.65891,1.63432 3.65891,3.65891s-1.63432,3.65891 -3.65891,3.65891z" />
    </g>
  </g>
</svg>