<svg width="25" height="25" xmlns="http://www.w3.org/2000/svg" stroke="currentColor" fill="currentColor" stroke-width="0">

  <g>
    <g stroke="null" id="svg_2">
      <path stroke="null" d="m17.486,8.5888c0.16417,0 0.32834,0.00557 0.48973,0.01391c-0.67894,-3.58114 -4.40477,-6.31916 -8.90137,-6.31916c-4.97519,0 -9.00989,3.35575 -9.00989,7.49618c0,2.25665 1.21319,4.29069 3.11367,5.66526a0.59825,0.59825 0 0 1 0.25321,0.48973c0,0.06678 -0.01391,0.128 -0.03061,0.192c-0.15304,0.56486 -0.39512,1.46918 -0.40625,1.51092c-0.01948,0.07235 -0.0473,0.14469 -0.0473,0.21982c0,0.16417 0.13356,0.30052 0.30052,0.30052c0.064,0 0.11687,-0.02504 0.17252,-0.05565l1.97283,-1.13806c0.14748,-0.08626 0.30608,-0.13913 0.4786,-0.13913c0.08904,0 0.17808,0.01391 0.26434,0.03896c0.92102,0.26434 1.91439,0.41182 2.94115,0.41182c0.16695,0 0.33112,-0.00278 0.49529,-0.01113c-0.19756,-0.58433 -0.3033,-1.19928 -0.3033,-1.83648c0,-3.7787 3.67853,-6.8395 8.21686,-6.8395l0,0zm-5.40649,-2.4069c0.66225,0 1.20206,0.53703 1.20206,1.19928s-0.53703,1.19928 -1.20206,1.19928c-0.66225,0 -1.20206,-0.53703 -1.20206,-1.19928s0.53981,-1.19928 1.20206,-1.19928zm-6.00752,2.39856c-0.66225,0 -1.20206,-0.53703 -1.20206,-1.19928s0.53703,-1.19928 1.20206,-1.19928s1.20206,0.53703 1.20206,1.19928s-0.53981,1.19928 -1.20206,1.19928zm16.32798,11.56426c1.58327,-1.14641 2.59333,-2.8382 2.59333,-4.72198c0,-3.45036 -3.36132,-6.24682 -7.51009,-6.24682c-4.14599,0 -7.51009,2.79646 -7.51009,6.24682s3.36132,6.24682 7.51009,6.24682c0.85702,0 1.68622,-0.12243 2.45142,-0.34225c0.07235,-0.02226 0.14469,-0.03339 0.21982,-0.03339c0.14469,0 0.27547,0.04452 0.3979,0.11408l1.64449,0.94607c0.0473,0.02783 0.09182,0.0473 0.14469,0.0473a0.25043,0.25043 0 0 0 0.17808,-0.07235a0.25043,0.25043 0 0 0 0.07235,-0.17808c0,-0.06122 -0.02504,-0.12243 -0.03896,-0.18365c-0.00835,-0.03339 -0.21147,-0.78746 -0.33947,-1.26049c-0.01391,-0.05287 -0.02504,-0.10574 -0.02504,-0.15861c0.00278,-0.16417 0.08626,-0.31165 0.21147,-0.40347l0,0zm-7.41549,-5.71813c-0.55373,0 -1.00172,-0.44799 -1.00172,-0.99893c0,-0.55094 0.44799,-0.99893 1.00172,-0.99893s1.00172,0.44799 1.00172,0.99893c0,0.55094 -0.45077,0.99893 -1.00172,0.99893zm5.0058,0c-0.55373,0 -1.00172,-0.44799 -1.00172,-0.99893c0,-0.55094 0.44799,-0.99893 1.00172,-0.99893s1.00172,0.44799 1.00172,0.99893a1.00394,1.00394 0 0 1 -1.00172,0.99893z" id="svg_1" />
    </g>
  </g>
</svg>