<svg width="25" height="25" xmlns="http://www.w3.org/2000/svg" stroke-width="0" fill="currentColor" stroke="currentColor">

  <g>
    <path stroke="null" id="svg_1" d="m23.65878,0.04716l-22.33593,0c-0.53715,0 -0.97113,0.44351 -0.97113,0.99247l0,22.82683c0,0.54896 0.43397,0.99247 0.97113,0.99247l22.33593,0c0.53715,0 0.97113,-0.44351 0.97113,-0.99247l0,-22.82683c0,-0.54896 -0.43397,-0.99247 -0.97113,-0.99247zm-16.10554,21.14273l-3.60228,0l0,-11.84142l3.60228,0l0,11.84142zm-1.79962,-13.46039a2.08792,2.13381 0 1 1 2.08792,-2.13381c-0.00303,1.17856 -0.93774,2.13381 -2.08792,2.13381zm15.28615,13.46039l-3.59924,0l0,-5.75943c0,-1.37395 -0.02428,-3.13869 -1.87245,-3.13869c-1.87245,0 -2.16076,1.49491 -2.16076,3.03944l0,5.85868l-3.59621,0l0,-11.84142l3.45357,0l0,1.61897l0.04856,0c0.47949,-0.93044 1.65395,-1.91361 3.40805,-1.91361c3.6478,0 4.31848,2.45326 4.31848,5.64158l0,6.49448z" />
  </g>
</svg>